<?xml version="1.0" encoding="UTF-8" standalone="no"?>
<!-- Created with Inkscape (http://www.inkscape.org/) -->

<svg
   width="500"
   height="577.77777"
   viewBox="0 0 102.04073 117.91373"
   version="1.1"
   id="svg1"
   xml:space="preserve"
   inkscape:version="1.4.2 (ebf0e940d0, 2025-05-08)"
   sodipodi:docname="mendotran-gráfico.svg"
   inkscape:export-filename="mendotran-gráfico2.png"
   inkscape:export-xdpi="115.2"
   inkscape:export-ydpi="115.2"
   xmlns:inkscape="http://www.inkscape.org/namespaces/inkscape"
   xmlns:sodipodi="http://sodipodi.sourceforge.net/DTD/sodipodi-0.dtd"
   xmlns:xlink="http://www.w3.org/1999/xlink"
   xmlns="http://www.w3.org/2000/svg"
   xmlns:svg="http://www.w3.org/2000/svg"><sodipodi:namedview
     id="namedview1"
     pagecolor="#ffffff"
     bordercolor="#999999"
     borderopacity="1"
     inkscape:showpageshadow="2"
     inkscape:pageopacity="0"
     inkscape:pagecheckerboard="0"
     inkscape:deskcolor="#d1d1d1"
     inkscape:document-units="mm"
     inkscape:zoom="1"
     inkscape:cx="202"
     inkscape:cy="327.5"
     inkscape:window-width="1440"
     inkscape:window-height="830"
     inkscape:window-x="0"
     inkscape:window-y="0"
     inkscape:window-maximized="1"
     inkscape:current-layer="g10"
     showguides="false"
     inkscape:export-bgcolor="#ffffffff"><sodipodi:guide
       position="49.365216,99.401775"
       orientation="-1,0"
       id="guide1"
       inkscape:locked="false"
       inkscape:label=""
       inkscape:color="rgb(0,134,229)" /><sodipodi:guide
       position="0,58.10431"
       orientation="1,0"
       id="guide2"
       inkscape:locked="false" /><sodipodi:guide
       position="50.907879,45.40857"
       orientation="-1,0"
       id="guide3"
       inkscape:locked="false"
       inkscape:label=""
       inkscape:color="rgb(0,134,229)" /></sodipodi:namedview><defs
     id="defs1"><rect
       x="514.30737"
       y="409.15744"
       width="220.95291"
       height="95.28598"
       id="rect15" /><rect
       x="714.34863"
       y="309.13678"
       width="203.00047"
       height="27.619114"
       id="rect12" /><rect
       x="287.36502"
       y="184.8343"
       width="83.458914"
       height="31.718463"
       id="rect4" /><rect
       x="268.81186"
       y="172.14001"
       width="274.39175"
       height="78.118652"
       id="rect3" /><linearGradient
       id="linearGradient5992"
       inkscape:collect="always"><stop
         id="stop5994"
         offset="0"
         style="stop-color:#ffffff;stop-opacity:1;" /><stop
         id="stop5996"
         offset="1"
         style="stop-color:#ffffff;stop-opacity:0;" /></linearGradient><linearGradient
       id="linearGradient3586"><stop
         id="stop3588"
         offset="0.0000000"
         style="stop-color:#000000;stop-opacity:1.0000000;" /><stop
         id="stop3590"
         offset="1"
         style="stop-color:#ffffff;stop-opacity:0;" /></linearGradient><linearGradient
       gradientUnits="userSpaceOnUse"
       y2="187.57059"
       x2="458.91232"
       y1="225.4008"
       x1="383.95898"
       id="linearGradient5969"
       xlink:href="#linearGradient5992"
       inkscape:collect="always" /><radialGradient
       gradientUnits="userSpaceOnUse"
       gradientTransform="matrix(1,0,0,1.693685,0,-197.9515)"
       r="33.15625"
       fy="285.36218"
       fx="495.5"
       cy="285.36218"
       cx="495.5"
       id="radialGradient6000"
       xlink:href="#linearGradient5992"
       inkscape:collect="always" /><radialGradient
       xlink:href="#linearGradient5992"
       r="20.00857"
       id="radialGradient3474"
       gradientUnits="userSpaceOnUse"
       gradientTransform="matrix(1,0,0,0.8517,0,112.11794)"
       cy="766.83136"
       cx="351.59622" /><radialGradient
       xlink:href="#linearGradient5992"
       r="26.13262"
       id="radialGradient3472"
       gradientUnits="userSpaceOnUse"
       gradientTransform="matrix(1,0,0,0.58929,0,182.61265)"
       cy="430.23538"
       cx="237.81387" /><radialGradient
       r="156.36012"
       id="radialGradient3470"
       gradientUnits="userSpaceOnUse"
       gradientTransform="matrix(1,0,0,0.91016,0,58.96409)"
       cy="725.12408"
       cx="272.54611"><stop
         id="stop3008"
         stop-color="#f9f9f9"
         offset="0" /><stop
         id="stop3010"
         stop-opacity="0"
         stop-color="#f9f9f9"
         offset="1" /></radialGradient><radialGradient
       r="143.30258"
       id="radialGradient3468"
       gradientUnits="userSpaceOnUse"
       gradientTransform="matrix(1.9207,-0.68157,0.60644,1.70899,-546.75241,-188.04675)"
       cy="427.63556"
       cx="279.01202"><stop
         id="stop3003"
         stop-color="#c8c8c8"
         offset="0" /><stop
         id="stop3005"
         stop-opacity="0"
         stop-color="#c4c4c4"
         offset="1" /></radialGradient><linearGradient
       y2="628.76904"
       y1="449.46701"
       x2="413.9967"
       x1="451.37234"
       id="linearGradient3476"
       gradientUnits="userSpaceOnUse"><stop
         id="stop2998"
         stop-color="#252525"
         offset="0" /><stop
         id="stop3000"
         stop-opacity="0"
         stop-color="#252525"
         offset="1" /></linearGradient><filter
       id="filter3237"
       color-interpolation-filters="sRGB"
       x="-0.064794695"
       y="-0.055496901"
       width="1.1295894"
       height="1.1109938"><feGaussianBlur
         id="feGaussianBlur2990"
         stdDeviation="9.53566" /></filter><style
       id="style1">
      .cls-1 {
        fill: #27d045;
      }

      .cls-2, .cls-5 {
        fill: none;
      }

      .cls-2 {
        stroke: #fff;
        stroke-width: 5px;
      }

      .cls-3 {
        fill: #fff;
      }

      .cls-4 {
        stroke: none;
      }
    </style><rect
       x="287.36502"
       y="184.8343"
       width="118.45755"
       height="29.995027"
       id="rect4-9" /><rect
       x="287.36502"
       y="184.8343"
       width="183.18813"
       height="30.533587"
       id="rect4-2" /><rect
       x="514.30737"
       y="409.15744"
       width="220.95291"
       height="95.28598"
       id="rect16" /><rect
       x="514.30737"
       y="409.15744"
       width="220.95291"
       height="95.28598"
       id="rect17" /><clipPath
       clipPathUnits="userSpaceOnUse"
       id="clipPath59"><path
         d="M 0,0 H 841.89 V 595.276 H 0 Z"
         transform="translate(-230.36701,-183.655)"
         id="path59" /></clipPath><clipPath
       clipPathUnits="userSpaceOnUse"
       id="clipPath57"><path
         d="M 0,0 H 841.89 V 595.276 H 0 Z"
         transform="translate(-240.46401,-178.073)"
         id="path57" /></clipPath><clipPath
       clipPathUnits="userSpaceOnUse"
       id="clipPath61"><path
         d="M 0,0 H 841.89 V 595.276 H 0 Z"
         transform="translate(-283.13301,-183.82801)"
         id="path61" /></clipPath><clipPath
       clipPathUnits="userSpaceOnUse"
       id="clipPath65"><path
         d="M 0,0 H 841.89 V 595.276 H 0 Z"
         transform="translate(-283.13301,-252.719)"
         id="path65" /></clipPath><clipPath
       clipPathUnits="userSpaceOnUse"
       id="clipPath55"><path
         d="M 0,0 H 841.89 V 595.276 H 0 Z"
         transform="translate(-240.46701,-258.401)"
         id="path55" /></clipPath><clipPath
       clipPathUnits="userSpaceOnUse"
       id="clipPath67"><path
         d="M 0,0 H 841.89 V 595.276 H 0 Z"
         transform="translate(-267.50401,-218.174)"
         id="path67" /></clipPath><clipPath
       clipPathUnits="userSpaceOnUse"
       id="clipPath63"><path
         d="M 0,0 H 841.89 V 595.276 H 0 Z"
         transform="translate(-230.728,-253.436)"
         id="path63" /></clipPath></defs><g
     inkscape:label="Capa 1"
     inkscape:groupmode="layer"
     id="layer1"><rect
       style="stroke-width:4.02148;stroke-dasharray:none;fill:#dedede;fill-opacity:1;stroke-linecap:round;paint-order:stroke fill markers"
       id="rect7"
       width="266.0033"
       height="307.38159"
       x="-92.743988"
       y="0.39624146"
       transform="matrix(0.38360698,0,0,0.38360698,35.577245,-0.15200099)"
       inkscape:label="Fondo" /><g
       transform="matrix(-0.11691466,0,0,0.11691466,125.46961,19.915808)"
       id="g6052"
       inkscape:label="server"><path
         style="fill:#c7c7c7;fill-opacity:1;fill-rule:evenodd;stroke:#000000;stroke-width:6.113;stroke-linecap:butt;stroke-linejoin:miter;stroke-miterlimit:4;stroke-dasharray:none;stroke-opacity:1"
         d="m 362.77592,187.283 c -2.27249,3.70377 -1.56999,180.40463 1.36419,187.36873 2.32257,5.51247 76.8837,67.47815 80.79688,69.13521 50.41318,-0.34294 84.40477,-18.70114 90.0541,-28.39959 2.14933,-12.19845 0.32512,-200.19026 -1.73557,-204.13376 -1.77693,-3.40047 -97.20659,-37.61499 -100.53937,-38.39305 -2.99852,-0.70002 -67.41426,10.30556 -69.94023,14.42246 z"
         id="path1306"
         sodipodi:nodetypes="czcczzz" /><path
         style="fill:#ffffff;fill-opacity:0.54386;fill-rule:evenodd;stroke:none;stroke-width:0.25pt;stroke-linecap:butt;stroke-linejoin:miter;stroke-opacity:1"
         d="m 366.42857,190.93361 c 24.76191,10.47619 52.17744,27.37378 79.79649,40.70711 26.16894,-6.21919 63.97714,-14.531 83.02475,-17.86433 -24.52381,7.61904 -56.72959,14.73809 -81.2534,22.35714 -1.42857,57.38095 -0.73941,144.32508 -2.16798,201.70603 C 445.11414,379.98242 443.14285,291.6479 442.42856,233.79075 415.99999,219.50504 390,206.64789 366.42857,190.93361 Z"
         id="path2066"
         sodipodi:nodetypes="ccccccc" /><path
         style="fill:#000000;fill-opacity:0.162281;fill-rule:evenodd;stroke:none;stroke-width:0.25pt;stroke-linecap:butt;stroke-linejoin:miter;stroke-opacity:1"
         d="m 519.99794,379.97737 c -9.0596,13.02145 -37.57945,19.45624 -51.12534,14.19127 2.34575,-0.62624 48.08883,-13.19981 51.12534,-14.19127 z"
         id="path4356"
         sodipodi:nodetypes="ccc" /><g
         id="g4374"
         transform="translate(2.035534,15.20712)"><path
           sodipodi:nodetypes="cccccc"
           id="path4362"
           d="m 471.29127,340.59039 42.26794,-16.28523 c 4.34099,1.54289 3.48667,7.97302 3.48667,7.97302 l -6.58433,2.3027 c 0,0 -9.19391,14.43136 -25.53059,8.78707 0,0 -12.15226,2.1581 -13.63969,-2.77756 z"
           style="fill:#ffffff;fill-opacity:0.394737;fill-rule:evenodd;stroke:none;stroke-width:1.012;stroke-linecap:butt;stroke-linejoin:miter;stroke-miterlimit:4;stroke-dasharray:none;stroke-opacity:1" /><path
           sodipodi:nodetypes="ccccccc"
           id="path2826"
           d="m 471.66824,335.10501 c 14.03309,-3.65019 28.06619,-7.30037 42.09928,-10.95056 0.53842,1.98419 0.57685,4.84337 -0.25973,6.32756 -2.14213,1.02451 -6.40558,1.87224 -8.54771,2.89675 -6.15651,5.89478 -11.50091,6.42487 -21.30089,5.57367 -3.78414,0.7936 -7.56829,1.41041 -11.35243,2.20401 -1.15391,-2.29747 -1.48461,-3.25396 -0.63852,-6.05143 z"
           style="fill:#606060;fill-opacity:1;fill-rule:evenodd;stroke:none;stroke-width:1.112;stroke-linecap:butt;stroke-linejoin:miter;stroke-miterlimit:4;stroke-dasharray:none;stroke-opacity:1" /></g><path
         style="fill:#ffffff;fill-opacity:0.403509;fill-rule:evenodd;stroke:none;stroke-width:0.25pt;stroke-linecap:butt;stroke-linejoin:miter;stroke-opacity:1"
         d="m 364.8671,189.69191 81.85281,45.92641 -0.32842,205.38939 -80.11017,-67.46803 z"
         id="path4423"
         sodipodi:nodetypes="ccccc" /><path
         sodipodi:nodetypes="ccc"
         id="path5957"
         d="m 515.24794,392.97737 c -9.43288,12.44299 -28.30681,14.5835 -38.87534,10.79094 1.7837,-0.47619 36.56641,-10.03704 38.87534,-10.79094 z"
         style="fill:#000000;fill-opacity:0.162281;fill-rule:evenodd;stroke:none;stroke-width:0.25pt;stroke-linecap:butt;stroke-linejoin:miter;stroke-opacity:1" /><path
         style="fill:#000000;fill-opacity:0.162281;fill-rule:evenodd;stroke:none;stroke-width:0.25pt;stroke-linecap:butt;stroke-linejoin:miter;stroke-opacity:1"
         d="m 508.24794,405.72737 c -5.45636,7.36542 -15.99874,9.64404 -24.37534,6.76606 1.1184,-0.29858 22.92761,-6.29335 24.37534,-6.76606 z"
         id="path5959"
         sodipodi:nodetypes="ccc" /><path
         style="fill:#fcfcfc;fill-opacity:0.442982;fill-rule:evenodd;stroke:none;stroke-width:0.312;stroke-linecap:butt;stroke-linejoin:miter;stroke-miterlimit:4;stroke-dasharray:none;stroke-opacity:1"
         d="m 522.875,227.86218 4.16789,0.56802 0.75,98.13909 -59.30025,15.59987 -6.60876,-2.82843 61.80546,-16.47855 z"
         id="path5973"
         sodipodi:nodetypes="ccccccc" /><path
         style="color:#000000;font-family:'Bitstream Vera Sans';display:inline;overflow:visible;visibility:visible;opacity:1;fill:#000000;fill-opacity:0.227451;fill-rule:evenodd;stroke:none;stroke-width:2.612;stroke-linecap:butt;stroke-linejoin:miter;stroke-miterlimit:4;stroke-dasharray:none;stroke-dashoffset:0;stroke-opacity:0.22807;marker:none;marker-start:none;marker-mid:none;marker-end:none"
         d="m 462.21967,264.23013 0.0947,2.76073 60.47856,-17.44454 z"
         id="path6026"
         sodipodi:nodetypes="cccc" /><path
         sodipodi:nodetypes="cccc"
         id="path6036"
         d="m 461.33579,284.2059 0.0947,2.76073 60.47856,-17.44454 z"
         style="color:#000000;font-family:'Bitstream Vera Sans';display:inline;overflow:visible;visibility:visible;opacity:1;fill:#000000;fill-opacity:0.227451;fill-rule:evenodd;stroke:none;stroke-width:2.612;stroke-linecap:butt;stroke-linejoin:miter;stroke-miterlimit:4;stroke-dasharray:none;stroke-dashoffset:0;stroke-opacity:0.22807;marker:none;marker-start:none;marker-mid:none;marker-end:none" /><path
         style="color:#000000;font-family:'Bitstream Vera Sans';display:inline;overflow:visible;visibility:visible;opacity:1;fill:#000000;fill-opacity:0.227451;fill-rule:evenodd;stroke:none;stroke-width:2.612;stroke-linecap:butt;stroke-linejoin:miter;stroke-miterlimit:4;stroke-dasharray:none;stroke-dashoffset:0;stroke-opacity:0.22807;marker:none;marker-start:none;marker-mid:none;marker-end:none"
         d="m 462.21967,302.64613 0.0947,2.76073 60.47856,-17.44454 z"
         id="path6038"
         sodipodi:nodetypes="cccc" /><path
         sodipodi:nodetypes="cccc"
         id="path6040"
         d="m 462.21967,320.79868 0.0947,2.76073 60.47856,-17.44454 z"
         style="color:#000000;font-family:'Bitstream Vera Sans';display:inline;overflow:visible;visibility:visible;opacity:1;fill:#000000;fill-opacity:0.227451;fill-rule:evenodd;stroke:none;stroke-width:2.612;stroke-linecap:butt;stroke-linejoin:miter;stroke-miterlimit:4;stroke-dasharray:none;stroke-dashoffset:0;stroke-opacity:0.22807;marker:none;marker-start:none;marker-mid:none;marker-end:none" /><path
         style="color:#000000;font-family:'Bitstream Vera Sans';display:inline;overflow:visible;visibility:visible;opacity:1;fill:none;fill-opacity:0.75;fill-rule:evenodd;stroke:#9e9e9e;stroke-width:2.612;stroke-linecap:butt;stroke-linejoin:miter;stroke-miterlimit:4;stroke-dasharray:none;stroke-dashoffset:0;stroke-opacity:1;marker:none;marker-start:none;marker-mid:none;marker-end:none"
         d="m 522.55191,229.64344 -60.51829,15.11701 0.23745,94.83809"
         id="path5988"
         sodipodi:nodetypes="ccc" /><g
         data-name="Group 36"
         id="Group_36"
         transform="matrix(-0.94699861,0,0,0.94699861,728.04096,-99.7036)"
         inkscape:label="whatsapp icon"><circle
           class="cls-1"
           cx="379"
           cy="493"
           data-name="Ellipse 18"
           id="Ellipse_18"
           r="54.526665"
           style="display:inline;stroke:#000000;stroke-width:5.85196932;stroke-dasharray:none;stroke-opacity:1;paint-order:normal"
           inkscape:label="Ellipse_18" /><g
           data-name="Group 35"
           id="Group_35"
           transform="translate(254,386)"><g
             data-name="Group 34"
             id="Group_34"><g
               class="cls-2"
               data-name="Ellipse 19"
               id="Ellipse_19"
               transform="translate(94,75)"><circle
                 class="cls-4"
                 cx="31.5"
                 cy="31.5"
                 r="31.5"
                 id="circle1" /><circle
                 class="cls-5"
                 cx="31.5"
                 cy="31.5"
                 r="29"
                 id="circle2" /></g><path
               class="cls-3"
               d="m 1424,191 -4.6,16.3 16.9,-4.7 0.9,-5.2 -11,3.5 2.9,-10.5 z"
               data-name="Path 126"
               id="Path_126"
               transform="translate(-1325,-68)" /><path
               class="cls-1"
               d="m 1266,90 c 0,-0.1 3.5,-11.7 3.5,-11.7 l 8.4,7.9 z"
               data-name="Path 127"
               id="Path_127"
               transform="translate(-1165,43)" /></g><path
             class="cls-3"
             d="m 1439.3,160.6 a 9.4,9.4 0 0 0 -3.9,6.1 c -0.5,3.9 1.9,7.9 1.9,7.9 a 50.876,50.876 0 0 0 8.6,9.8 30.181,30.181 0 0 0 9.6,5.1 11.378,11.378 0 0 0 6.4,0.6 9.167,9.167 0 0 0 4.8,-3.2 9.851,9.851 0 0 0 0.6,-2.2 5.868,5.868 0 0 0 0,-2 c -0.1,-0.7 -7.3,-4 -8,-3.8 -0.7,0.2 -1.3,1.5 -2.1,2.6 -0.8,1.1 -1.1,1.6 -1.9,1.6 -0.8,0 -4.3,-1.4 -7.6,-4.4 a 15.875,15.875 0 0 1 -4.3,-6 c 0,0 0.6,-0.7 1.4,-1.8 a 5.664,5.664 0 0 0 1.3,-2.4 c 0,-0.5 -2.8,-7.6 -3.5,-7.9 a 11.852,11.852 0 0 0 -3.3,0 z"
             data-name="Path 128"
             id="Path_128"
             transform="translate(-1326.332,-68.467)"
             style="display:inline" /></g><text
           xml:space="preserve"
           style="font-style:normal;font-variant:normal;font-weight:bold;font-stretch:normal;font-size:24.5767px;font-family:'Noto Sans';-inkscape-font-specification:'Noto Sans Bold';text-align:start;letter-spacing:0px;word-spacing:0px;writing-mode:lr-tb;direction:ltr;text-anchor:start;fill:#ffffff;fill-opacity:1;stroke:#000000;stroke-width:7.2453;stroke-linecap:round;stroke-linejoin:round;stroke-dasharray:none;stroke-opacity:1;paint-order:stroke markers fill"
           x="402.4437"
           y="531.50922"
           id="text7"
           inkscape:label=".JS"><tspan
             sodipodi:role="line"
             id="tspan7"
             style="font-style:normal;font-variant:normal;font-weight:bold;font-stretch:normal;font-size:24.5767px;font-family:'Noto Sans';-inkscape-font-specification:'Noto Sans Bold';fill:#ffffff;fill-opacity:1;stroke:#000000;stroke-width:7.2453;stroke-linecap:round;stroke-linejoin:round;stroke-dasharray:none;stroke-opacity:1;paint-order:stroke markers fill"
             x="402.4437"
             y="531.50922">.JS</tspan></text></g></g><g
       id="g3014"
       transform="matrix(0.04615665,0.01461136,-0.01461136,0.04615665,68.992468,66.189082)"
       style="display:inline"
       inkscape:label="smartphone"><path
         id="path3016"
         transform="matrix(1,0,0,0.99654,0,-4.9528)"
         d="m 261.70132,441.19016 186.87823,-15.15229 c 14.55023,-1.11158 23.99263,22.64679 21.42571,35.97377 l -71.30902,343.24618 c -6.82948,33.92104 -22.98055,33.11662 -37.53079,33.11662 H 145.72811 c -14.55024,0 -32.11753,-19.9143 -27.85429,-33.11662 L 227.74195,465.02107 c 4.26325,-13.20232 19.28209,-22.64086 33.95937,-23.83091 z"
         inkscape:connector-curvature="0"
         style="display:none;fill:#333333;filter:url(#filter3237)" /><path
         id="path3018"
         d="m 254.55846,424.0473 186.87823,-15.15229 c 14.55023,-1.11158 23.99263,22.64679 21.42571,35.97377 l -71.30902,343.24618 c -6.82947,33.92105 -22.98055,33.11662 -37.53079,33.11662 H 138.58525 c -14.55024,0 -32.11753,-19.9143 -27.85429,-33.11662 L 220.59909,447.87821 c 4.26325,-13.20232 19.28209,-22.64086 33.95937,-23.83091 z"
         inkscape:connector-curvature="0"
         style="display:inline;fill:#3e3e3e;fill-opacity:1;stroke:#000000;stroke-width:13.3845;stroke-dasharray:none;stroke-opacity:1" /><path
         id="path3020"
         d="m 168.2412,638.21473 -37.63375,116.53375 c -3.64381,11.28409 3.4293,20.37937 15.86547,20.37938 h 188.67351 c 12.43617,0 25.72269,-8.71267 29.03328,-20.37938 l 5.22457,-18.64126"
         inkscape:connector-curvature="0"
         style="display:inline;fill:none;stroke:#b3b3b3;stroke-width:1.44804" /><path
         id="path3022"
         d="m 432.09546,419.5949 -178.79793,13.02724 c -11.30491,0.82345 -23.23757,8.04216 -26.07221,15.92816 l -93.98443,292.42796 237.21081,-3.30382 71.54043,-305.4552 c 0.93054,-4.34018 0.049,-7.8471 -1.49496,-9.80401 -1.54394,-1.95691 -3.50797,-3.13138 -8.43161,-2.79347 l 0.0299,-0.0269 z"
         inkscape:connector-curvature="0"
         style="display:inline;fill:#ececec" /><path
         id="path3024"
         transform="matrix(1,0,-0.30364,0.95279,0,0)"
         d="m 377.07928,470.27921 195.66163,-14.0289 21.74026,285.41284 -217.40189,1.49936 z"
         inkscape:connector-curvature="0"
         style="display:inline;fill:#606060;fill-opacity:1" /><path
         id="path3026"
         d="m 433.75,421.5625 c -0.38827,-0.003 -0.92857,-0.0122 -1.5625,0.0312 h -0.0937 -0.21875 -0.28125 l -178.125,13 c -5.31743,0.38733 -10.83249,2.23429 -15.375,5 -4.61113,2.80749 -7.6996,5.95156 -9.03125,9.65625 -0.0111,0.0415 -0.0215,0.0832 -0.0312,0.125 L 154,682.78125 c -0.51975,1.63941 0.0631,3.42774 1.44911,4.446 1.38598,1.01826 3.26677,1.03999 4.67589,0.054 28.87223,-20.1949 62.75991,-0.21154 78.69681,-19.03114 15.9369,-18.8196 78.96703,-26.36594 102.95036,-39.15969 36.15074,-19.2844 21.24194,-71.05062 69.32158,-83.02792 1.46601,-0.36699 2.60145,-1.52659 2.9375,-3 l 26.0625,-111.3125 0.0312,-0.0625 c 0.43268,-2.01808 0.32518,-3.75631 0.0625,-5.0625 -0.13134,-0.65309 -0.2942,-1.2182 -0.46875,-1.65625 -0.0873,-0.21902 -0.15812,-0.41286 -0.25,-0.59375 -0.0919,-0.18089 0.0603,-0.0711 -0.5,-0.78125 -0.0774,-0.098 -0.12642,-0.14078 -0.1875,-0.21875 -0.0611,-0.078 0.0454,-0.14163 -0.78125,-0.78125 -0.33553,-0.25963 -1.02168,-0.50129 -1.625,-0.65625 -0.89315,-0.28036 -1.4606,-0.36516 -2.625,-0.375 z m 1.65625,0.1875 c 0.2221,-0.007 0.56317,0.0886 0.90625,0.15625 -0.11443,-0.027 -0.20876,-0.11345 -0.3125,-0.125 -0.66541,-0.0741 -0.76995,-0.0257 -0.59375,-0.0312 z"
         inkscape:connector-curvature="0"
         style="display:none;fill:url(#radialGradient3468)"
         sodipodi:nodetypes="ccccccscccscssccccsccccccccccccc" /><path
         id="path3028"
         d="m 428.90625,514 c -6.41174,28.31269 -13.23467,58.51481 -21.0625,92.1875 -10.00098,43.02084 -20.31056,86.31543 -28.6875,119.40625 -4.18847,16.54541 -7.8844,30.53909 -10.84375,40.6875 -3.63473,14.44874 -6.37364,20.91636 -22.5625,23.3125 h -211 -0.125 c -0.36288,0.0194 -8.48555,0.35479 -12.84375,-8.125 -0.76624,-1.49089 -0.82177,-3.43605 -0.6875,-6.0625 0.13427,-2.62645 0.57081,-5.86594 1.1875,-9.5 0.69422,-4.09095 1.64081,-8.72197 2.71875,-13.5 l -7.75,24.03125 c -2.02784,6.27977 -1.0514,11.76491 2.03125,15.71875 3.08265,3.95384 8.37544,6.46875 15.34375,6.46875 H 345.75 c 6.96843,-10e-6 14.62633,-2.58346 20.78125,-6.75 6.15492,-4.16654 10.75178,-9.90653 11.9375,-16.0625 z"
         inkscape:connector-curvature="0"
         style="display:none;fill:url(#radialGradient3470)" /><path
         id="path3030"
         d="m 216.81109,769.15098 6.69906,-26.63035 h 40"
         inkscape:connector-curvature="0"
         style="display:inline;fill:none;stroke:#b3b3b3;stroke-width:0.53027" /><path
         id="path3032"
         d="m 149.37467,760.47798 1.34818,-5.61575 h 27.79625 l -1.37184,5.71428"
         inkscape:connector-curvature="0"
         style="display:inline;fill:none;stroke:#b3b3b3;stroke-width:1.11356" /><path
         id="path3034"
         d="m 308.03264,760.12084 1.34818,-5.61575 h 27.79624 l -1.37183,5.71428 m -23.89547,-1.53303 h 20.44273 l -0.20173,0.84034 h -20.44274 z"
         inkscape:connector-curvature="0"
         style="display:inline;fill:none;stroke:#b3b3b3;stroke-width:1.11356" /><path
         id="path3036"
         transform="matrix(1,0,-0.22688,1,97.318,0.71429)"
         d="m 430.98213,427.76398 a 3.25893,4.15179 0 1 1 -6.51785,0 3.25893,4.15179 0 1 1 6.51785,0 z"
         inkscape:connector-curvature="0"
         style="display:inline;fill:#999999;stroke:#717171;stroke-width:0.18789;stroke-linecap:round" /><path
         id="path3038"
         transform="matrix(0.82638,0,-0.18749,0.82796,147.62168,73.86166)"
         d="m 430.98213,427.76398 a 3.25893,4.15179 0 1 1 -6.51785,0 3.25893,4.15179 0 1 1 6.51785,0 z"
         inkscape:connector-curvature="0"
         style="display:inline;fill:#999999;stroke:#717171;stroke-width:0.22715;stroke-linecap:round" /><path
         id="path3040"
         d="m 364.80413,432.88787 c 1.48793,-0.1068 3.00948,-1.32314 3.4178,-2.7322 l 0.86819,-2.99602 -75.53373,5.4218 -0.86819,2.99602 c -0.40833,1.40907 0.48561,2.45202 1.97352,2.34522 z"
         inkscape:connector-curvature="0"
         style="display:inline;fill:none;stroke:#3c3c3c;stroke-width:0.82404;stroke-linecap:round" /><path
         id="path3042"
         d="m 222.35983,459.52891 3.81345,-12.28958 c 4.73214,-10.35714 18.09917,-14.61099 24.25988,-15.77171 l 23.19191,-1.73821"
         inkscape:connector-curvature="0"
         style="display:inline;fill:none;stroke:url(#radialGradient3472);stroke-width:0.53027" /><path
         id="path3044"
         d="m 326.27927,772.54993 10.98541,-0.12627 c 11.86929,-0.88388 22.09709,-11.23795 23.48605,-16.66752 l 4.54568,-16.28871"
         inkscape:connector-curvature="0"
         style="display:inline;fill:none;stroke:url(#radialGradient3474);stroke-width:0.53027" /><path
         id="path3046"
         d="m 348.94457,797.93001 c 0,0 -2.52538,-5.17703 0.94702,-8.33376 0,0 5.40406,-0.86546 10.10152,-4.54569 4.46681,-3.49952 5.42957,-8.01808 5.42957,-8.01808 0,0 8.08123,5.55584 5.55585,10.4172 l -2.96733,2.65165 c 0,0 -3.06287,-5.11391 -5.36644,-5.1139 -0.26786,0 -0.53643,0.38087 -0.63134,0.63135 -0.8808,2.32453 0.50508,7.95495 0.50508,7.95495 -8.64943,4.16688 -13.57393,4.35628 -13.57393,4.35628 z"
         inkscape:connector-curvature="0"
         style="display:inline;fill:#ebebeb;fill-rule:evenodd" /><path
         id="path3048"
         d="m 448.84693,428.00125 -45.96194,196.47467 37.88072,-122.73354 c 0,0 12.7633,-49.86582 14.14213,-62.62946 0.40783,-3.77519 -6.06091,-11.11167 -6.06091,-11.11167 z"
         inkscape:connector-curvature="0"
         style="display:none;fill:url(#linearGradient3476);fill-rule:evenodd" /></g><text
       xml:space="preserve"
       transform="matrix(0.26458333,0,0,0.26458333,-57.59186,45.103935)"
       id="text4-2"
       style="font-size:24.6826px;font-family:FreeSans;-inkscape-font-specification:FreeSans;text-align:end;white-space:pre;shape-inside:url(#rect4-9);display:inline;fill:#000000;fill-opacity:1;stroke:none;stroke-width:2.23748;stroke-dasharray:none;stroke-opacity:1"
       inkscape:label="cliente"
       x="48.983974"
       y="0"><tspan
         x="292.75124"
         y="207.29207"
         id="tspan3"><tspan
           style="font-weight:bold;font-family:'Noto Sans';-inkscape-font-specification:'Noto Sans Bold'"
           id="tspan1">USUARIO</tspan></tspan></text><text
       xml:space="preserve"
       style="font-style:normal;font-variant:normal;font-weight:600;font-stretch:normal;font-size:4.9389px;font-family:FreeSans;-inkscape-font-specification:'FreeSans Semi-Bold';text-align:center;text-anchor:middle;display:none;fill:#0d0d0d;fill-opacity:1;stroke:none;stroke-width:0.592;stroke-dasharray:none;stroke-opacity:1"
       x="130.56216"
       y="76.022476"
       id="text5"><tspan
         id="tspan5"
         style="font-style:normal;font-variant:normal;font-weight:normal;font-stretch:normal;font-family:FreeSans;-inkscape-font-specification:FreeSans;text-align:start;text-anchor:start;stroke-width:0.592"
         x="0"
         y="0"
         sodipodi:role="line">Aquí es donde estará alojada</tspan><tspan
         style="font-style:normal;font-variant:normal;font-weight:normal;font-stretch:normal;font-family:FreeSans;-inkscape-font-specification:FreeSans;text-align:start;text-anchor:start;stroke-width:0.592"
         x="0"
         y="0"
         id="tspan6"
         sodipodi:role="line">la cuenta que hará de bot</tspan></text><text
       xml:space="preserve"
       transform="matrix(0.26458333,0,0,0.26458333,-48.624615,5.3901841)"
       id="text4"
       style="font-size:24.6826px;font-family:FreeSans;-inkscape-font-specification:FreeSans;text-align:center;white-space:pre;shape-inside:url(#rect4);display:inline;fill:#000000;fill-opacity:1;stroke:none;stroke-width:2.23748;stroke-dasharray:none;stroke-opacity:1"
       inkscape:label="bot"
       x="24.065516"
       y="0"><tspan
         x="321.38496"
         y="207.29207"
         id="tspan10"><tspan
           style="font-weight:bold;font-family:'Noto Sans';-inkscape-font-specification:'Noto Sans Bold';text-align:end;text-anchor:end"
           id="tspan9">BOT</tspan></tspan></text><text
       xml:space="preserve"
       transform="matrix(0.26458333,0,0,0.26458333,-74.547439,-34.386122)"
       id="text4-1"
       style="font-size:24.6826px;font-family:FreeSans;-inkscape-font-specification:FreeSans;text-align:end;white-space:pre;shape-inside:url(#rect4-2);display:inline;fill:#000000;fill-opacity:1;stroke:none;stroke-width:2.23748;stroke-dasharray:none;stroke-opacity:1"
       inkscape:label="mendotran"
       x="69.654289"
       y="0"><tspan
         x="308.95578"
         y="207.29207"
         id="tspan12"><tspan
           style="font-weight:bold;font-family:'Noto Sans';-inkscape-font-specification:'Noto Sans Bold'"
           id="tspan11">MENDOTRAN</tspan></tspan></text></g><g
     id="g10"
     inkscape:label="Mendotran"
     transform="matrix(0.38360699,0,0,0.38360699,35.577245,-0.15200099)"
     style="stroke-width:2.04376;stroke-dasharray:none"><rect
       style="fill:#c8102e;fill-opacity:1;stroke:#000000;stroke-width:2.04376;stroke-dasharray:none;stroke-opacity:1"
       id="rect10"
       width="47.940113"
       height="47.940113"
       x="74.893204"
       y="21.818451"
       ry="7.6486311" /><g
       id="g7"
       transform="matrix(1.4195063,0,0,1.4195063,-41.829782,22.54474)"
       style="display:inline;stroke-width:1.83644"><path
         id="path54"
         d="m 0,0 6.215,2.386 8.676,-15.214 c 0,0 0.484,-0.894 1.421,-0.885 0.641,0.007 1.241,0.885 1.241,0.885 L 26.244,2.207 32.852,-0.09 18.26,-25.821 c 0,0 -0.438,-1.067 -1.858,-1.067 -1.243,0 -1.761,1.014 -1.761,1.014 z"
         style="fill:#ffffff;fill-opacity:1;fill-rule:nonzero;stroke:none;stroke-width:1.83644"
         transform="matrix(0.27210861,0,0,-0.27210861,94.68373,5.4451654)"
         clip-path="url(#clipPath55)" /><path
         id="path56"
         d="m 0,0 6.214,-2.389 8.675,15.217 c 0,0 0.532,0.866 1.241,0.882 0.935,0.026 1.418,-0.882 1.418,-0.882 L 26.24,-2.207 32.852,0.091 18.26,25.818 c 0,0 -0.438,1.065 -1.86,1.065 -1.246,0 -1.761,-1.007 -1.761,-1.007 z"
         style="fill:#ffffff;fill-opacity:1;fill-rule:nonzero;stroke:none;stroke-width:1.83644"
         transform="matrix(0.27210861,0,0,-0.27210861,94.682913,27.303106)"
         clip-path="url(#clipPath57)" /><path
         id="path58"
         d="M 0,0 -5.174,4.203 3.62,19.355 c 0,0 0.423,0.991 0.071,1.607 -0.319,0.556 -1.397,0.7 -1.397,0.7 l -17.325,0.036 -1.321,6.889 29.498,0.193 c 0,0 1.142,0.144 1.858,-1.085 0.616,-1.081 0.009,-2.04 0.009,-2.04 z"
         style="fill:#ffffff;fill-opacity:1;fill-rule:nonzero;stroke:none;stroke-width:1.83644"
         transform="matrix(0.27210861,0,0,-0.27210861,91.935432,25.784196)"
         clip-path="url(#clipPath59)" /><path
         id="path60"
         d="m 0,0 5.175,4.202 -8.801,15.153 c 0,0 -0.542,0.802 -0.068,1.789 0.282,0.587 1.401,0.523 1.401,0.523 l 17.319,0.034 1.323,6.885 -29.496,0.189 c 0,0 -1.149,0.152 -1.856,-1.076 -0.617,-1.085 -0.004,-2.042 -0.004,-2.042 z"
         style="fill:#ffffff;fill-opacity:1;fill-rule:nonzero;stroke:none;stroke-width:1.83644"
         transform="matrix(0.27210861,0,0,-0.27210861,106.29352,25.73712)"
         clip-path="url(#clipPath61)" /><path
         id="path62"
         d="M 0,0 -5.173,-4.2 3.62,-19.348 c 0,0 0.419,-1.004 0.072,-1.611 -0.32,-0.561 -1.4,-0.708 -1.4,-0.708 l -17.325,-0.028 -1.319,-6.887 29.497,-0.196 c 0,0 1.14,-0.143 1.858,1.086 0.615,1.082 0.008,2.037 0.008,2.037 z"
         style="fill:#ffffff;fill-opacity:1;fill-rule:nonzero;stroke:none;stroke-width:1.83644"
         transform="matrix(0.27210861,0,0,-0.27210861,92.033662,6.7961846)"
         clip-path="url(#clipPath63)" /><path
         id="path64"
         d="m 0,0 5.175,-4.195 -8.801,-15.158 c 0,0 -0.395,-0.796 -0.068,-1.427 0.455,-0.872 1.401,-0.882 1.401,-0.882 l 17.319,-0.036 1.323,-6.888 -29.496,-0.186 c 0,0 -1.149,-0.151 -1.856,1.082 -0.617,1.083 -0.004,2.034 -0.004,2.034 z"
         style="fill:#ffffff;fill-opacity:1;fill-rule:nonzero;stroke:none;stroke-width:1.83644"
         transform="matrix(0.27210861,0,0,-0.27210861,106.29352,6.9912866)"
         clip-path="url(#clipPath65)" /><path
         id="path66"
         d="m 0,0 c 0,-5.98 -4.829,-10.825 -10.786,-10.825 -5.958,0 -10.783,4.845 -10.783,10.825 0,5.978 4.825,10.824 10.783,10.824 C -4.829,10.824 0,5.978 0,0"
         style="fill:#49a84e;fill-opacity:1;fill-rule:nonzero;stroke:none;stroke-width:1.83644"
         transform="matrix(0.27210861,0,0,-0.27210861,102.04073,16.391279)"
         clip-path="url(#clipPath67)" /></g></g><g
     id="g18"
     transform="translate(-38.629168,-20.561649)"><rect
       style="fill:#606060;fill-opacity:1;stroke:none;stroke-width:0.0784253;stroke-dasharray:none;stroke-opacity:1;paint-order:fill markers stroke"
       id="rect13"
       width="0.94892335"
       height="10.101727"
       x="110.05356"
       y="96.149445"
       ry="0" /><path
       sodipodi:type="star"
       style="fill:#606060;fill-opacity:1;stroke:none;stroke-width:0.647999;stroke-dasharray:none;stroke-opacity:1;paint-order:fill markers stroke"
       id="path18"
       inkscape:flatsided="true"
       sodipodi:sides="3"
       sodipodi:cx="110.50706"
       sodipodi:cy="96.128807"
       sodipodi:r1="1.6252196"
       sodipodi:r2="0.81260979"
       sodipodi:arg1="0.52359878"
       sodipodi:arg2="1.5707963"
       inkscape:rounded="0"
       inkscape:randomized="0"
       d="m 111.91454,96.941417 -2.81496,0 1.40748,-2.43783 z"
       inkscape:transform-center-x="1.5985459e-06"
       inkscape:transform-center-y="-0.20839183"
       transform="matrix(0.71897705,0,0,0.51289419,31.069488,46.491418)" /></g><g
     id="g19"
     transform="translate(-38.629168,-66.599152)"><rect
       style="fill:#606060;fill-opacity:1;stroke:none;stroke-width:0.066585;stroke-dasharray:none;stroke-opacity:1;paint-order:fill markers stroke"
       id="rect18"
       width="0.94892335"
       height="7.2817507"
       x="110.05356"
       y="96.149445"
       ry="0" /><path
       sodipodi:type="star"
       style="fill:#606060;fill-opacity:1;stroke:none;stroke-width:0.647999;stroke-dasharray:none;stroke-opacity:1;paint-order:fill markers stroke"
       id="path19"
       inkscape:flatsided="true"
       sodipodi:sides="3"
       sodipodi:cx="110.50706"
       sodipodi:cy="96.128807"
       sodipodi:r1="1.6252196"
       sodipodi:r2="0.81260979"
       sodipodi:arg1="0.52359878"
       sodipodi:arg2="1.5707963"
       inkscape:rounded="0"
       inkscape:randomized="0"
       d="m 111.91454,96.941417 -2.81496,0 1.40748,-2.43783 z"
       inkscape:transform-center-x="1.5985459e-06"
       inkscape:transform-center-y="-0.20839183"
       transform="matrix(0.71897705,0,0,0.51289419,31.069488,46.491418)" /></g><g
     id="g20"
     transform="matrix(1,0,0,-1,-35.454168,132.29186)"><rect
       style="fill:#606060;fill-opacity:1;stroke:none;stroke-width:0.0659728;stroke-dasharray:none;stroke-opacity:1;paint-order:fill markers stroke"
       id="rect20"
       width="0.94892335"
       height="7.1484609"
       x="110.05356"
       y="96.149445"
       ry="0" /><path
       sodipodi:type="star"
       style="fill:#606060;fill-opacity:1;stroke:none;stroke-width:0.647999;stroke-dasharray:none;stroke-opacity:1;paint-order:fill markers stroke"
       id="path20"
       inkscape:flatsided="true"
       sodipodi:sides="3"
       sodipodi:cx="110.50706"
       sodipodi:cy="96.128807"
       sodipodi:r1="1.6252196"
       sodipodi:r2="0.81260979"
       sodipodi:arg1="0.52359878"
       sodipodi:arg2="1.5707963"
       inkscape:rounded="0"
       inkscape:randomized="0"
       d="m 111.91454,96.941417 -2.81496,0 1.40748,-2.43783 z"
       inkscape:transform-center-x="1.5985459e-06"
       inkscape:transform-center-y="-0.20839183"
       transform="matrix(0.71897705,0,0,0.51289419,31.069488,46.491418)" /></g><g
     id="g21"
     transform="matrix(1,0,0,-1,-35.454168,181.16042)"><rect
       style="fill:#606060;fill-opacity:1;stroke:none;stroke-width:0.0774286;stroke-dasharray:none;stroke-opacity:1;paint-order:fill markers stroke"
       id="rect21"
       width="0.94892335"
       height="9.8465815"
       x="110.05356"
       y="96.149445"
       ry="0" /><path
       sodipodi:type="star"
       style="fill:#606060;fill-opacity:1;stroke:none;stroke-width:0.647999;stroke-dasharray:none;stroke-opacity:1;paint-order:fill markers stroke"
       id="path21"
       inkscape:flatsided="true"
       sodipodi:sides="3"
       sodipodi:cx="110.50706"
       sodipodi:cy="96.128807"
       sodipodi:r1="1.6252196"
       sodipodi:r2="0.81260979"
       sodipodi:arg1="0.52359878"
       sodipodi:arg2="1.5707963"
       inkscape:rounded="0"
       inkscape:randomized="0"
       d="m 111.91454,96.941417 -2.81496,0 1.40748,-2.43783 z"
       inkscape:transform-center-x="1.5985459e-06"
       inkscape:transform-center-y="-0.20839183"
       transform="matrix(0.71897705,0,0,0.51289419,31.069488,46.491418)" /></g></svg>
